<?xml version="1.0" encoding="UTF-8" standalone="no"?>
<!-- Created with Inkscape (http://www.inkscape.org/) -->

<svg
   xmlns:dc="http://purl.org/dc/elements/1.1/"
   xmlns:cc="http://creativecommons.org/ns#"
   xmlns:rdf="http://www.w3.org/1999/02/22-rdf-syntax-ns#"
   xmlns:svg="http://www.w3.org/2000/svg"
   xmlns="http://www.w3.org/2000/svg"
   version="1.2"
   width="575.41278"
   height="94.417023"
   id="svg2">
  <defs
     id="defs4">
    <linearGradient
       id="linearGradient5232">
      <stop
         id="stop5234"
         style="stop-color:#d10000;stop-opacity:1"
         offset="0" />
    </linearGradient>
  </defs>
  <metadata
     id="metadata7">
    <rdf:RDF>
      <cc:Work
         rdf:about="">
        <dc:format>image/svg+xml</dc:format>
        <dc:type
           rdf:resource="http://purl.org/dc/dcmitype/StillImage" />
        <dc:title></dc:title>
      </cc:Work>
    </rdf:RDF>
  </metadata>
  <g
     transform="translate(-95.511334,-410.66638)"
     id="layer1">
    <g
       transform="matrix(1.8883405,0,0,1.8883405,-44.343884,-310.97474)"
       id="flowRoot2985"
       style="font-size:40px;font-style:normal;font-weight:normal;line-height:125%;letter-spacing:0px;word-spacing:0px;fill:#000000;fill-opacity:1;stroke:none;font-family:Sans">
      <path
         d="m 74.84375,383.79195 8.5,0 20.6875,39.03125 0,-39.03125 6.125,0 0,46.65625 -8.5,0 -20.6875,-39.03125 0,39.03125 -6.125,0 0,-46.65625"
         id="path3004"
         style="fill:#422d3f;fill-opacity:0;stroke:#d60000;stroke-width:1.58869648;stroke-miterlimit:4;stroke-opacity:1;stroke-dasharray:none" />
      <path
         d="m 154.53125,423.79195 0,-12.53125 -10.3125,0 0,-5.1875 16.5625,0 0,20.03125 c -2.43754,1.72917 -5.12504,3.04166 -8.0625,3.9375 -2.93753,0.875 -6.07295,1.3125 -9.40625,1.3125 -7.29169,0 -13.00001,-2.125 -17.125,-6.375 -4.10417,-4.27083 -6.15625,-10.20832 -6.15625,-17.8125 0,-7.62497 2.05208,-13.56247 6.15625,-17.8125 4.12499,-4.27079 9.83331,-6.40621 17.125,-6.40625 3.04164,4e-5 5.92705,0.37504 8.65625,1.125 2.74996,0.75004 5.28121,1.85421 7.59375,3.3125 l 0,6.71875 c -2.33337,-1.97913 -4.81254,-3.46871 -7.4375,-4.46875 -2.62503,-0.99996 -5.38545,-1.49996 -8.28125,-1.5 -5.70836,4e-5 -10.00002,1.59379 -12.875,4.78125 -2.85418,3.18753 -4.28126,7.93753 -4.28125,14.25 -1e-5,6.29168 1.42707,11.03126 4.28125,14.21875 2.87498,3.1875 7.16664,4.78125 12.875,4.78125 2.22914,0 4.21872,-0.1875 5.96875,-0.5625 1.74996,-0.39583 3.32288,-1 4.71875,-1.8125"
         id="path3006"
         style="fill:#422d3f;fill-opacity:0;stroke:#d10000;stroke-width:1.58869648;stroke-miterlimit:4;stroke-opacity:1;stroke-dasharray:none" />
      <path
         d="m 172.90625,422.5107 6.59375,0 0,7.9375 -6.59375,0 0,-7.9375"
         id="path3008"
         style="fill:#d40000;fill-opacity:0;stroke:#d60000;stroke-width:1.58869648;stroke-miterlimit:4;stroke-opacity:1;stroke-dasharray:none" />
      <path
         d="m 219.40625,408.16695 0,17.09375 10.125,0 c 3.39581,0 5.90622,-0.69791 7.53125,-2.09375 1.6458,-1.41666 2.46872,-3.57291 2.46875,-6.46875 -3e-5,-2.91665 -0.82295,-5.06248 -2.46875,-6.4375 -1.62503,-1.39582 -4.13544,-2.09373 -7.53125,-2.09375 l -10.125,0 m 0,-19.1875 0,14.0625 9.34375,0 c 3.08331,2e-5 5.37497,-0.57289 6.875,-1.71875 1.5208,-1.16664 2.28122,-2.93747 2.28125,-5.3125 -3e-5,-2.35413 -0.76045,-4.11455 -2.28125,-5.28125 -1.50003,-1.16663 -3.79169,-1.74996 -6.875,-1.75 l -9.34375,0 m -6.3125,-5.1875 16.125,0 c 4.81247,4e-5 8.5208,1.00004 11.125,3 2.60413,2.00004 3.90621,4.84379 3.90625,8.53125 -4e-5,2.8542 -0.6667,5.12503 -2,6.8125 -1.33337,1.68752 -3.2917,2.73961 -5.875,3.15625 3.10413,0.66669 5.51038,2.06252 7.21875,4.1875 1.72913,2.10418 2.59371,4.7396 2.59375,7.90625 -4e-5,4.16667 -1.4167,7.38542 -4.25,9.65625 -2.83337,2.27083 -6.86461,3.40625 -12.09375,3.40625 l -16.75,0 0,-46.65625"
         id="path3010"
         style="font-size:64px;fill:#422d3f;fill-opacity:1" />
      <path
         d="m 256.96875,383.79195 6.3125,0 0,41.34375 22.71875,0 0,5.3125 -29.03125,0 0,-46.65625"
         id="path3012"
         style="font-size:64px;fill:#422d3f;fill-opacity:1" />
      <path
         d="m 309.28125,388.0732 c -4.58335,4e-5 -8.22918,1.70837 -10.9375,5.125 -2.68751,3.4167 -4.03126,8.07294 -4.03125,13.96875 -10e-6,5.87501 1.34374,10.52084 4.03125,13.9375 2.70832,3.41667 6.35415,5.125 10.9375,5.125 4.5833,0 8.2083,-1.70833 10.875,-5.125 2.68746,-3.41666 4.03121,-8.06249 4.03125,-13.9375 -4e-5,-5.89581 -1.34379,-10.55205 -4.03125,-13.96875 -2.6667,-3.41663 -6.2917,-5.12496 -10.875,-5.125 m 0,-5.125 c 6.54163,4e-5 11.7708,2.19796 15.6875,6.59375 3.91662,4.37503 5.87495,10.25003 5.875,17.625 -5e-5,7.35418 -1.95838,13.22917 -5.875,17.625 -3.9167,4.375 -9.14587,6.5625 -15.6875,6.5625 -6.56252,0 -11.81251,-2.1875 -15.75,-6.5625 -3.91667,-4.37499 -5.875,-10.24999 -5.875,-17.625 0,-7.37497 1.95833,-13.24997 5.875,-17.625 3.93749,-4.39579 9.18748,-6.59371 15.75,-6.59375"
         id="path3014"
         style="font-size:64px;fill:#422d3f;fill-opacity:1" />
      <path
         d="m 372.53125,423.79195 0,-12.53125 -10.3125,0 0,-5.1875 16.5625,0 0,20.03125 c -2.43754,1.72917 -5.12504,3.04166 -8.0625,3.9375 -2.93753,0.875 -6.07295,1.3125 -9.40625,1.3125 -7.29169,0 -13.00001,-2.125 -17.125,-6.375 -4.10417,-4.27083 -6.15625,-10.20832 -6.15625,-17.8125 0,-7.62497 2.05208,-13.56247 6.15625,-17.8125 4.12499,-4.27079 9.83331,-6.40621 17.125,-6.40625 3.04164,4e-5 5.92705,0.37504 8.65625,1.125 2.74996,0.75004 5.28121,1.85421 7.59375,3.3125 l 0,6.71875 c -2.33337,-1.97913 -4.81254,-3.46871 -7.4375,-4.46875 -2.62503,-0.99996 -5.38545,-1.49996 -8.28125,-1.5 -5.70836,4e-5 -10.00002,1.59379 -12.875,4.78125 -2.85418,3.18753 -4.28126,7.93753 -4.28125,14.25 -10e-6,6.29168 1.42707,11.03126 4.28125,14.21875 2.87498,3.1875 7.16664,4.78125 12.875,4.78125 2.22914,0 4.21872,-0.1875 5.96875,-0.5625 1.74996,-0.39583 3.32288,-1 4.71875,-1.8125"
         id="path3016"
         style="font-size:64px;fill:#422d3f;fill-opacity:1" />
    </g>
  </g>
</svg>
