<?xml version="1.0" encoding="UTF-8" standalone="no"?>
<svg
   xmlns:dc="http://purl.org/dc/elements/1.1/"
   xmlns:cc="http://creativecommons.org/ns#"
   xmlns:rdf="http://www.w3.org/1999/02/22-rdf-syntax-ns#"
   xmlns:svg="http://www.w3.org/2000/svg"
   xmlns="http://www.w3.org/2000/svg"
   xmlns:sodipodi="http://sodipodi.sourceforge.net/DTD/sodipodi-0.dtd"
   xmlns:inkscape="http://www.inkscape.org/namespaces/inkscape"
   version="1.1"
   id="svg5463"
   height="477.8125"
   width="526.875"
   inkscape:version="0.48.4 r9939"
   sodipodi:docname="signin12.svg">
  <sodipodi:namedview
     pagecolor="#ffffff"
     bordercolor="#666666"
     borderopacity="1"
     objecttolerance="10"
     gridtolerance="10"
     guidetolerance="10"
     inkscape:pageopacity="0"
     inkscape:pageshadow="2"
     inkscape:window-width="1920"
     inkscape:window-height="1056"
     id="namedview27"
     showgrid="false"
     inkscape:zoom="0.921875"
     inkscape:cx="-62.066691"
     inkscape:cy="183.22384"
     inkscape:window-x="1366"
     inkscape:window-y="24"
     inkscape:window-maximized="1"
     inkscape:current-layer="layer1"
     fit-margin-top="0"
     fit-margin-left="0"
     fit-margin-right="0"
     fit-margin-bottom="0"
     inkscape:object-paths="true"
     inkscape:snap-nodes="false"
     inkscape:snap-to-guides="false"
     inkscape:snap-grids="false"
     inkscape:snap-global="false" />
  <metadata
     id="metadata5491">
    <rdf:RDF>
      <cc:Work
         rdf:about="">
        <dc:format>image/svg+xml</dc:format>
        <dc:type
           rdf:resource="http://purl.org/dc/dcmitype/StillImage" />
        <dc:title></dc:title>
      </cc:Work>
    </rdf:RDF>
  </metadata>
  <defs
     id="defs5489" />
  <g
     inkscape:groupmode="layer"
     id="layer2"
     inkscape:label="Layer0"
     transform="translate(2.2063021,-39.762353)">
    <path
       style="stroke:#454652;stroke-opacity:1;opacity:1;stroke-width:12.69800000000000040;stroke-miterlimit:4;stroke-dasharray:none;stroke-linejoin:miter;stroke-linecap:butt;stroke-dashoffset:0;fill:#da4a53;fill-opacity:1"
       d="M 263.4375,6.125 C 121.3282,6.125 6.125,121.3282 6.125,263.4375 c 0,85.64045 41.835329,161.47774 106.1875,208.25 l 302.21875,0 C 478.88342,424.91524 520.75,349.07795 520.75,263.4375 520.75,121.3282 405.5468,6.125 263.4375,6.125 z"
       id="path3067"
       inkscape:connector-curvature="0"
       transform="translate(-2.2063021,39.762353)" />
  </g>
  <path
     id="body-bg-flat"
     style="fill:#ffffff;fill-rule:nonzero;stroke:none"
     d="m 116.2063,469.23765 c 0,0 -10.30188,-90.31113 78.44,-100.38666 0,0 37.97333,0 37.97333,0 0,0 0,-17.49334 0,-17.49334 0,0 26.71167,11.47332 53.76001,1.27999 0,0 0.85333,16.21335 0.85333,16.21335 0,0 44.37332,0 44.37332,0 0,0 77.27347,7.71427 72.60001,100.38666 0,0 -288,0 -288,0 z"
     inkscape:connector-curvature="0" />
  <path
     id="Rounded Rectangle 13"
     style="fill:#3b434f;fill-rule:nonzero;stroke:none"
     d="m 404.88156,471.82432 c 0,0 0,0 0,0 0,0 -284.51639,0 -284.51639,0 0,0 0,0 0,0 0,0 -5.51788,0 -5.51788,0 0,0 1.37735,-23.52982 1.37735,-23.52982 2.6893,-45.94223 38.88687,-81.00351 80.31,-81.00351 0,0 31.52499,0 31.52499,0 0,0 0,4.69333 0,4.69333 0,0 -29.01028,0 -29.01028,0 -39.92337,0 -74.8104,33.74842 -77.40235,77.97034 0,0 -0.95672,16.323 -0.95672,16.323 0,0 283.43951,0 283.43951,0 0,0 -0.53006,-16.323 -0.53006,-16.323 -2.59195,-44.22192 -37.47897,-77.97034 -77.40237,-77.97034 0,0 -38.83106,0 -38.83106,0 0,0 0,-4.69333 0,-4.69333 0,0 41.09275,0 41.09275,0 41.42312,0 77.62069,35.06128 80.30999,81.00351 0,0 1.37735,23.52982 1.37735,23.52982 0,0 -5.26483,0 -5.26483,0 z"
     inkscape:connector-curvature="0" />
  <path
     id="Ellipse 4"
     style="fill:#3b434f;fill-rule:nonzero;stroke:none"
     d="m 257.9263,420.19764 c -22.85721,0 -41.38669,-18.52942 -41.38669,-41.38666 0,-3.99945 0.57862,-7.86163 1.63715,-11.51999 0,0 0.0695,0 0.0695,0 0,0 4.39178,0 4.39178,0 0,0 7.55487,0 7.55487,0 0,0 0,4.69333 0,4.69333 0,0 -8.74801,0 -8.74801,0 -0.41422,2.21317 -0.63867,4.49305 -0.63867,6.82666 0,20.50083 16.61923,37.12 37.12002,37.12 20.50082,0 37.12,-16.61917 37.12,-37.12 0,-2.33361 -0.22443,-4.61349 -0.63868,-6.82666 0,0 -8.74798,0 -8.74798,0 0,0 0,-4.69333 0,-4.69333 0,0 7.55484,0 7.55484,0 0,0 4.39181,0 4.39181,0 0,0 0.0695,0 0.0695,0 1.05854,3.65836 1.63715,7.52054 1.63715,11.51999 0,22.85724 -18.52942,41.38666 -41.38666,41.38666 z"
     inkscape:connector-curvature="0" />
  <path
     id="neck"
     style="fill:#3b434f;fill-rule:nonzero;stroke:none"
     d="m 233.60629,350.38374 c 0,0 0,26.31509 0,26.31509 0,13.65549 11.07947,24.7255 24.74668,24.7255 13.6672,0 24.74667,-11.07001 24.74667,-24.7255 0,0 0,-25.77219 0,-25.77219 1.43616,-0.43713 2.8588,-0.91192 4.26666,-1.42486 0,0 0,27.37616 0,27.37616 0,16.14862 -13.0852,29.23971 -29.22665,29.23971 -16.14145,0 -29.22669,-13.09109 -29.22669,-29.23971 0,0 0,-28.18662 0,-28.18662 1.54584,0.61124 3.11155,1.17344 4.69333,1.69242 z"
     inkscape:connector-curvature="0" />
  <path
     id="2 copy 5"
     style="fill:#ffffff;fill-rule:nonzero;stroke:none"
     d="m 259.42096,82.704287 c 53.07788,0 94.97229,49.601233 93.61008,109.198313 0,0 -1.44782,63.34115 -1.44782,63.34115 -1.28332,56.14637 -42.53149,100.52722 -92.16226,100.52722 -49.63077,0 -90.87894,-44.38085 -92.16226,-100.52722 0,0 -1.44782,-63.34115 -1.44782,-63.34115 -1.36218,-59.59708 40.5322,-109.198313 93.61008,-109.198313 z"
     inkscape:connector-curvature="0" />
  <path
     id="2 line"
     style="fill:#3b434f;fill-rule:evenodd;stroke:none"
     d="m 357.29569,189.93879 c 0,0 -1.51706,65.91437 -1.51706,65.91437 -1.3447,58.42731 -44.56604,104.61114 -96.57093,104.61114 -52.00491,0 -95.22622,-46.18383 -96.57095,-104.61114 0,0 -1.51709,-65.91437 -1.51709,-65.91437 -1.42734,-62.01822 42.47113,-113.634493 98.08804,-113.634493 55.61692,0 99.51535,51.616273 98.08799,113.634493 z M 258.9946,83.130957 c -52.35227,0 -93.67392,49.213713 -92.33038,108.345183 0,0 1.42804,62.84632 1.42804,62.84632 1.26577,55.7077 41.95007,99.74185 90.90234,99.74185 48.95227,0 89.63653,-44.03415 90.90231,-99.74185 0,0 1.42801,-62.84632 1.42801,-62.84632 1.3436,-59.13147 -39.97806,-108.345183 -92.33032,-108.345183 z"
     inkscape:connector-curvature="0" />
  <path
     id="Rounded Rectangle 3"
     style="fill:#3b434f;fill-rule:nonzero;stroke:none"
     d="m 248.96631,322.06434 c 0,0 20.47998,0 20.47998,0 0.9426,0 1.70667,0.76407 1.70667,1.70663 0,0.9426 -0.76407,1.70667 -1.70667,1.70667 0,0 -20.47998,0 -20.47998,0 -0.9426,0 -1.70667,-0.76407 -1.70667,-1.70667 0,-0.94256 0.76407,-1.70663 1.70667,-1.70663 z"
     inkscape:connector-curvature="0" />
  <path
     id="2"
     style="fill:#3b434f;fill-rule:nonzero;stroke:none"
     d="m 231.04446,301.64411 c 0,0 2.3765,-3.3266 2.3765,-3.3266 7.6402,4.37015 16.71713,6.90369 26.45526,6.90369 9.84662,0 19.0166,-2.59122 26.70947,-7.05139 0,0 2.48822,3.43606 2.48822,3.43606 -8.36868,4.84464 -18.34057,7.65848 -29.04721,7.65848 -10.67874,0 -20.62698,-2.7987 -28.98224,-7.62024 z"
     inkscape:connector-curvature="0" />
  <path
     id="Shape 11 copy"
     style="fill:#ffffff;fill-rule:nonzero;stroke:none"
     d="m 161.01352,199.55079 c -0.0118,6.7e-4 -1.04761,-0.82654 -3.0036,-1.44238 -0.9776,-0.30725 -2.1926,-0.56 -3.57745,-0.62232 -0.34586,-0.0156 -0.70182,-0.0192 -1.06604,-0.009 -0.36423,0.0103 -0.73676,0.0347 -1.11542,0.0751 -0.75723,0.0809 -1.53931,0.22628 -2.3263,0.45266 -3.15115,0.90558 -6.36572,3.10733 -8.25363,7.65177 -0.94769,2.27234 -1.57287,5.13061 -1.73816,8.70682 -0.0413,0.89407 -0.054,1.833 -0.0359,2.81887 0.0182,0.98587 0.0671,2.01868 0.14887,3.1005 0.16342,2.16354 0.45853,4.52316 0.89822,7.09439 -0.01,-0.003 -0.41009,7.76999 2.36859,16.70114 2.61225,8.73196 8.88508,19.4584 20.46689,22.52359 -1.33203,-22.17938 -1.37341,-44.77451 -2.76611,-67.05127 0,0 0,0 0,0 z"
     inkscape:connector-curvature="0" />
  <path
     id="Shape 3"
     style="fill:#3b434f;fill-rule:nonzero;stroke:none"
     d="m 162.33417,200.44492 c 0,0 -20.17639,-6.25167 -19.46634,14.49082 0,0 3.00391,30.07727 4.30835,32.84927 0,0 7.92383,17.51203 21.00098,18.28812 12.781,0.75851 0,0 0,0 0,0 0.15872,5.64453 0.15872,5.64453 0,0 -22.98465,-2.94699 -27.42398,-29.4346 0,0 -3.50388,-24.06271 -3.50388,-24.06271 0,0 -2.72061,-31.84464 23.66946,-23.7479 25.70929,7.88788 0,0 0,0 0,0 1.25669,5.97247 1.25669,5.97247"
     inkscape:connector-curvature="0" />
  <path
     id="Shape 4"
     style="fill:#3b434f;fill-rule:nonzero;stroke:none"
     d="m 155.67462,242.23246 c 0,0 -1.12915,0.85333 -2.09915,0.85333 -0.97,0 -2.08539,-0.85333 -2.08539,-0.85333 0,0 -2.08221,-20.98279 -2.08221,-20.98279 0,0 2.87292,-10.33346 15.06381,-4.87252 0,0 0.28818,5.99972 0.28818,5.99972 0,0 -10.69565,-3.79321 -10.47449,0.93021 0.21289,4.54654 1.38925,18.92538 1.38925,18.92538 z"
     inkscape:connector-curvature="0" />
  <path
     id="Shape 11 copy_1"
     style="fill:#ffffff;fill-rule:nonzero;stroke:none"
     d="m 357.01972,199.59977 c 0.0118,6.7e-4 1.05221,-0.82596 3.01675,-1.44141 0.9819,-0.30703 2.20221,-0.5596 3.59314,-0.62188 0.34735,-0.0155 0.70486,-0.0192 1.07071,-0.009 0.36581,0.0103 0.73996,0.0347 1.1203,0.0751 0.76053,0.0808 1.54605,0.22614 2.33649,0.45236 3.16494,0.90497 6.39358,3.10523 8.28976,7.64658 0.95184,2.27078 1.57977,5.1271 1.74576,8.7009 0.0415,0.89346 0.0542,1.83175 0.036,2.81695 -0.0183,0.9852 -0.0674,2.0173 -0.14954,3.09839 -0.16412,2.16208 -0.46054,4.52011 -0.90216,7.08957 0.01,-0.003 0.4119,7.76474 -2.37897,16.68982 -2.62365,8.72604 -8.92397,19.44519 -20.55651,22.5083 1.33786,-22.16434 1.37942,-44.74411 2.77823,-67.00577 0,0 0,0 0,0 z"
     inkscape:connector-curvature="0" />
  <path
     id="Shape 3_1"
     style="fill:#3b434f;fill-rule:nonzero;stroke:none"
     d="m 355.6889,200.49333 c 0,0 20.26477,-6.24744 19.55161,14.48095 0,0 -3.01706,30.05686 -4.32724,32.82697 0,0 -7.95853,17.50015 -21.09293,18.27572 -12.837,0.758 0,0 0,0 0,0 -0.15942,5.64069 -0.15942,5.64069 0,0 23.0853,-2.94498 27.54407,-29.41461 0,0 3.51922,-24.04639 3.51922,-24.04639 0,0 2.73255,-31.82303 -23.77313,-23.73178 -25.82187,7.88254 0,0 0,0 0,0 -1.26218,5.96845 -1.26218,5.96845"
     inkscape:connector-curvature="0" />
  <path
     id="Shape 4_1"
     style="fill:#3b434f;fill-rule:nonzero;stroke:none"
     d="m 362.37763,242.25248 c 0,0 1.13409,0.85275 2.10833,0.85275 0.97425,0 2.09452,-0.85275 2.09452,-0.85275 0,0 2.09133,-20.96854 2.09133,-20.96854 0,0 -2.88549,-10.32644 -15.12979,-4.86923 0,0 -0.28943,5.99567 -0.28943,5.99567 0,0 10.7425,-3.79065 10.52036,0.92957 -0.21381,4.54345 -1.39532,18.91253 -1.39532,18.91253 z"
     inkscape:connector-curvature="0" />
  <path
     id="new_vector_shape_done"
     style="fill:#3b434f;fill-rule:evenodd;stroke:none"
     d="m 267.09964,240.57099 c 0.49771,0 0.99561,0 1.49332,0 3.08746,4.19297 4.34357,10.63642 5.97332,16.21332 0.50507,1.7283 0.0151,4.75131 -0.42666,5.97333 -1.61777,4.47552 -6.69763,4.3952 -10.87998,6.39999 -1.12323,0.53845 -1.95874,1.46784 -3.41333,1.7067 -0.9483,-0.83533 -2.09329,-0.99939 -2.56002,-2.34668 -1.15232,-1.58673 0.33282,-2.57761 1.49334,-3.20001 2.10624,-1.12958 8.60816,-2.24289 9.38666,-4.26667 0.96323,-1.09573 0.32275,-4.39016 0,-5.54666 -0.8266,-2.96216 -1.22336,-5.43512 -2.34665,-8.10666 -0.74615,-1.7745 -2.05618,-3.6455 -1.28,-5.76001 0.64319,-0.27618 2.0333,-0.59021 2.56,-1.06665 z"
     inkscape:connector-curvature="0" />
  <path
     id="Rounded Rectangle 9"
     style="fill:#3b434f;fill-rule:nonzero;stroke:none"
     d="m 205.01962,210.44831 c 0,0 15.36002,0 15.36002,0 2.12076,0 3.84,2.06308 3.84,4.608 0,2.54493 -1.71924,4.60801 -3.84,4.60801 0,0 -15.36002,0 -15.36002,0 -2.12075,0 -3.83999,-2.06308 -3.83999,-4.60801 0,-2.54492 1.71924,-4.608 3.83999,-4.608 z"
     inkscape:connector-curvature="0" />
  <path
     id="Rounded Rectangle 9 copy"
     style="fill:#3b434f;fill-rule:nonzero;stroke:none"
     d="m 298.88629,209.42433 c 0,0 15.36002,0 15.36002,0 2.12076,0 3.83999,2.06304 3.83999,4.608 0,2.54492 -1.71923,4.60797 -3.83999,4.60797 0,0 -15.36002,0 -15.36002,0 -2.12076,0 -3.83999,-2.06305 -3.83999,-4.60797 0,-2.54496 1.71923,-4.608 3.83999,-4.608 z"
     inkscape:connector-curvature="0" />
  <path
     id="Ellipse 3"
     style="fill:#edf1f1;fill-rule:nonzero;stroke:none"
     d="m 310.83298,235.87766 c 5.89102,0 10.66666,4.77564 10.66666,10.66666 0,5.89102 -4.77564,10.66666 -10.66666,10.66666 -5.89105,0 -10.66666,-4.77564 -10.66666,-10.66666 0,-5.89102 4.77561,-10.66666 10.66666,-10.66666 z"
     inkscape:connector-curvature="0" />
  <path
     id="Ellipse 3 copy"
     style="fill:#edf1f1;fill-rule:nonzero;stroke:none"
     d="m 207.57965,235.87766 c 5.89102,0 10.66666,4.77564 10.66666,10.66666 0,5.89102 -4.77564,10.66666 -10.66666,10.66666 -5.89105,0 -10.66665,-4.77564 -10.66665,-10.66666 0,-5.89102 4.7756,-10.66666 10.66665,-10.66666 z"
     inkscape:connector-curvature="0" />
  <path
     id="Shape 1 copy 5"
     style="fill:#3b434f;fill-rule:evenodd;stroke:none"
     d="m 344.53964,196.62431 c 0,0 0,31.57333 0,31.57333 0,7.71573 -7.52643,19.75546 -19.79049,20.44495 -1.80161,-0.0859 -38.23618,0.0351 -38.23618,0.0351 -16.37833,0 -19.62668,-19.62668 -19.62668,-19.62668 0,0 0,-21.33331 0,-21.33331 0,0 -15.35998,0 -15.35998,0 0,0 0,21.33331 0,21.33331 0,0 -3.24836,19.62668 -19.62668,19.62668 0,0 -36.43457,-0.12097 -38.23618,-0.0351 -12.26407,-0.68949 -19.79049,-12.72922 -19.79049,-20.44495 0,0 0,-31.57333 0,-31.57333 0,0 -13.65332,0 -13.65332,0 0,0 0,-8.53333 0,-8.53333 0,0 79.35998,0 79.35998,0 0,0 11.94669,1.92999 11.94669,10.23999 0,0 15.35998,0 15.35998,0 0,-8.31 11.94669,-10.23999 11.94669,-10.23999 0,0 79.35998,0 79.35998,0 0,0 0,8.53333 0,8.53333 0,0 -13.65332,0 -13.65332,0 z m -101.54669,4.26666 c 0,-3.04166 -3.41333,-3.41333 -3.41333,-3.41333 0,0 -57.17331,0 -57.17331,0 0,0 0,29.86667 0,29.86667 0,9.30585 12.79999,12.80002 12.79999,12.80002 0,0 34.98666,0 34.98666,0 12.03751,0 12.79999,-12.80002 12.79999,-12.80002 0,0 0,-23.41165 0,-26.45334 z m 93.01334,-3.41333 c 0,0 -57.17331,0 -57.17331,0 0,0 -3.41333,0.37167 -3.41333,3.41333 0,3.04169 0,26.45334 0,26.45334 0,0 0.76248,12.80002 12.79999,12.80002 0,0 34.98666,0 34.98666,0 0,0 12.79999,-3.49417 12.79999,-12.80002 0,0 0,-29.86667 0,-29.86667 z m -11.94666,51.20001 c 0.23264,-0.005 0.46015,-0.0222 0.68952,-0.0351 0.19287,0.009 -8.9e-4,0.0207 -0.68952,0.0351 z m -130.39618,-0.0351 c 0.22937,0.0129 0.45688,0.0302 0.68952,0.0351 -0.68863,-0.0143 -0.88239,-0.0258 -0.68952,-0.0351 z"
     inkscape:connector-curvature="0" />
  <path
     id="fill copy"
     style="fill:#c1bfbd;fill-rule:nonzero;stroke:none"
     d="m 166.38361,195.60822 c 0,0 -3.82416,-40.63708 21.1427,-62.13058 0,0 59.34539,58.32907 139.94665,0 0,0 28.96109,28.96881 26.45334,60.58667 0,0 48.83832,-56.01904 11.09332,-66.56 0,0 -9.30627,2.70978 -12.79998,-11.09332 C 348.72592,102.60786 342.2168,58.028815 254.0863,56.677649 165.95581,55.326484 172.16629,109.5843 172.16629,109.5843 c 0.28,0.16986 -48.95035,24.10962 -5.78268,86.02392 z"
     inkscape:connector-curvature="0" />
  <path
     id="line"
     style="fill:#3b434f;fill-rule:evenodd;stroke:none"
     d="m 354.35297,198.75764 c -1.02936,-35.0824 -26.88001,-61.44 -26.88001,-61.44 -80.60126,55.83657 -139.51999,0 -139.51999,0 -18.87185,14.44601 -21.33334,61.01333 -21.33334,61.01333 -48.67932,-62.13345 2.84,-89.43014 2.56,-89.6 0,0 -4.92792,-56.550086 83.20001,-55.039984 91.78964,1.572815 98.48492,45.770201 102.39999,61.440004 3.12214,12.49606 14.07999,10.23999 14.07999,10.23999 39.20834,15.22763 -14.50665,73.38666 -14.50665,73.38666 z m 9.38665,-68.69333 c 0,0 -10.43795,2.72476 -14.50665,-13.65332 -3.43283,-13.81842 -7.01617,-55.395511 -95.14667,-56.746677 -88.13049,-1.351166 -79.36001,52.053347 -79.36001,52.053347 0.28,0.16986 -44.29267,21.35068 -11.51999,73.81333 0,0 -1.07352,-34.39985 23.89334,-55.89335 0,0 57.41873,60.64576 141.22666,0.42667 0,0 26.55526,25.28549 28.58666,56.32001 0,0 39.16166,-49.22739 6.82666,-56.32001 z"
     inkscape:connector-curvature="0" />
  <g
     inkscape:groupmode="layer"
     id="layer1"
     inkscape:label="Layer"
     transform="translate(2.2063021,-39.762353)" />
</svg>
