<?xml version="1.0" encoding="UTF-8" standalone="no"?>
<svg
   xmlns:dc="http://purl.org/dc/elements/1.1/"
   xmlns:cc="http://creativecommons.org/ns#"
   xmlns:rdf="http://www.w3.org/1999/02/22-rdf-syntax-ns#"
   xmlns:svg="http://www.w3.org/2000/svg"
   xmlns="http://www.w3.org/2000/svg"
   xmlns:sodipodi="http://sodipodi.sourceforge.net/DTD/sodipodi-0.dtd"
   xmlns:inkscape="http://www.inkscape.org/namespaces/inkscape"
   version="1.1"
   id="svg5463"
   height="479.22305"
   width="527.3125"
   inkscape:version="0.48.4 r9939"
   sodipodi:docname="signin12.svg">
  <sodipodi:namedview
     pagecolor="#ffffff"
     bordercolor="#666666"
     borderopacity="1"
     objecttolerance="10"
     gridtolerance="10"
     guidetolerance="10"
     inkscape:pageopacity="0"
     inkscape:pageshadow="2"
     inkscape:window-width="1920"
     inkscape:window-height="1056"
     id="namedview27"
     showgrid="false"
     inkscape:zoom="0.921875"
     inkscape:cx="-61.847941"
     inkscape:cy="184.41565"
     inkscape:window-x="1366"
     inkscape:window-y="24"
     inkscape:window-maximized="1"
     inkscape:current-layer="layer2"
     fit-margin-top="0"
     fit-margin-left="0"
     fit-margin-right="0"
     fit-margin-bottom="0"
     inkscape:object-paths="true"
     inkscape:snap-nodes="false"
     inkscape:snap-to-guides="false"
     inkscape:snap-grids="false"
     inkscape:snap-global="false" />
  <metadata
     id="metadata5491">
    <rdf:RDF>
      <cc:Work
         rdf:about="">
        <dc:format>image/svg+xml</dc:format>
        <dc:type
           rdf:resource="http://purl.org/dc/dcmitype/StillImage" />
        <dc:title></dc:title>
      </cc:Work>
    </rdf:RDF>
  </metadata>
  <defs
     id="defs5489" />
  <g
     inkscape:groupmode="layer"
     id="layer2"
     inkscape:label="Layer0"
     transform="translate(2.4250521,-39.543603)">
    <path
       style="fill:#da4a53;fill-opacity:1;stroke:#454652;stroke-width:12.69799995;stroke-linecap:butt;stroke-linejoin:miter;stroke-miterlimit:4;stroke-opacity:1;stroke-dasharray:none;stroke-dashoffset:0"
       d="M 263.4375,6.125 C 121.3282,6.125 6.125,121.3282 6.125,263.4375 c 0,85.64045 41.835329,161.47774 106.1875,208.25 l 302.21875,0 C 478.88342,424.91524 520.75,349.07795 520.75,263.4375 520.75,121.3282 405.5468,6.125 263.4375,6.125 z"
       id="path3067"
       inkscape:connector-curvature="0"
       transform="translate(-2.2063021,39.762353)" />
    <path
       inkscape:connector-curvature="0"
       id="Shape 16"
       style="fill:#3b444f;fill-rule:nonzero;stroke:none"
       d="m 288.53769,150.74844 c -8.40666,-8.11896 -3.8169,-29.28009 -3.8169,-29.28009 0,0 0.37786,-1.54265 1.26619,-4.06838 5.10883,-14.52542 27.10017,-61.564904 91.18815,-34.684749 0,0 -16.11592,4.305894 -16.11592,4.305894 0,0 51.74052,2.872857 51.74052,87.840385 0,84.96753 0,200.65498 0,200.65498 0,0 -39.58731,35.73226 -89.06153,-23.25185 -49.47421,-58.98414 -35.77039,-147.23491 -35.77039,-147.23491 0,0 8.97655,-46.16229 0.56988,-54.28128 z" />
    <path
       inkscape:connector-curvature="0"
       id="Rounded Rectangle 7"
       style="fill:#3b444f;fill-rule:nonzero;stroke:none"
       d="m 255.0336,104.10839 c 58.79055,0 106.44972,48.38824 106.44972,108.07811 0,0 0,22.39069 0,22.39069 0,59.68988 -47.65917,108.07811 -106.44972,108.07811 -58.79055,0 -106.44971,-48.38823 -106.44971,-108.07811 0,0 0,-22.39069 0,-22.39069 0,-59.68987 47.65916,-108.07811 106.44971,-108.07811 z" />
    <path
       inkscape:connector-curvature="0"
       id="body-bg-flat copy"
       style="fill:#ffffff;fill-rule:nonzero;stroke:none"
       d="m 116.36531,506.37885 c 0,0 -6.57523,-82.45355 77.61078,-90.14879 0,0 37.74513,0 37.74513,0 0,0 0,-16.02863 0,-16.02863 0,0 26.55113,10.51266 53.43692,1.17282 0,0 0.8482,14.85581 0.8482,14.85581 0,0 44.10665,0 44.10665,0 0,0 75.52877,2.73439 72.09742,90.93067 0,0 -285.8451,-0.78188 -285.8451,-0.78188 z" />
    <path
       inkscape:connector-curvature="0"
       id="Rounded Rectangle 13"
       style="fill:#3b434f;fill-rule:nonzero;stroke:none"
       d="m 401.95389,518.76666 c 0,0 0,0 0,0 0,0 -282.8065,0 -282.8065,0 0,0 0,0 0,0 0,0 -5.48472,0 -5.48472,0 0,0 1.36907,-23.74619 1.36907,-23.74619 2.67314,-46.36469 38.65316,-81.74838 79.82736,-81.74838 0,0 31.33552,0 31.33552,0 0,0 0,4.73649 0,4.73649 0,0 -28.83593,0 -28.83593,0 -39.68344,0 -74.3608,34.05876 -76.93717,78.68733 0,0 -0.95097,16.47308 -0.95097,16.47308 0,0 281.7361,0 281.7361,0 0,0 -0.52687,-16.47308 -0.52687,-16.47308 -2.57638,-44.62857 -37.25374,-78.68733 -76.93721,-78.68733 0,0 -38.5977,0 -38.5977,0 0,0 0,-4.73649 0,-4.73649 0,0 40.8458,0 40.8458,0 41.17418,0 77.15421,35.38369 79.82734,81.74838 0,0 1.36908,23.74619 1.36908,23.74619 0,0 -5.2332,0 -5.2332,0 z" />
    <path
       inkscape:connector-curvature="0"
       id="Ellipse 4"
       style="fill:#3b434f;fill-rule:nonzero;stroke:none"
       d="m 256.87579,466.66524 c -22.71984,0 -41.13797,-18.69979 -41.13797,-41.76723 0,-4.03622 0.57516,-7.93392 1.62732,-11.62592 0,0 0.0691,0 0.0691,0 0,0 4.36538,0 4.36538,0 0,0 7.50947,0 7.50947,0 0,0 0,4.73649 0,4.73649 0,0 -8.69543,0 -8.69543,0 -0.41174,2.23352 -0.63483,4.53437 -0.63483,6.88943 0,20.68935 16.51935,37.46134 36.89694,37.46134 20.37761,0 36.89691,-16.77199 36.89691,-37.46134 0,-2.35506 -0.22308,-4.65591 -0.63484,-6.88943 0,0 -8.69541,0 -8.69541,0 0,0 0,-4.73649 0,-4.73649 0,0 7.50944,0 7.50944,0 0,0 4.36542,0 4.36542,0 0,0 0.0691,0 0.0691,0 1.05218,3.692 1.62731,7.5897 1.62731,11.62592 0,23.06744 -18.41806,41.76723 -41.13793,41.76723 z" />
    <path
       inkscape:connector-curvature="0"
       id="neck"
       style="fill:#3b434f;fill-rule:nonzero;stroke:none"
       d="m 231.70796,396.20937 c 0,0 0,26.55707 0,26.55707 0,13.78106 11.01288,24.95286 24.59795,24.95286 13.58506,0 24.59795,-11.1718 24.59795,-24.95286 0,0 0,-26.00918 0,-26.00918 1.42752,-0.44116 2.84161,-0.9203 4.24101,-1.43796 0,0 0,27.62791 0,27.62791 0,16.2971 -13.00655,29.50857 -29.051,29.50857 -16.04444,0 -29.05104,-13.21147 -29.05104,-29.50857 0,0 0,-28.44583 0,-28.44583 1.53654,0.61686 3.09285,1.18423 4.66513,1.70799 z" />
    <path
       inkscape:connector-curvature="0"
       id="1 copy 4"
       style="fill:#ffffff;fill-rule:nonzero;stroke:none"
       d="m 257.16104,135.11086 c 53.70465,0 94.55871,47.81939 92.37272,102.53762 0,0 -2.96658,74.25622 -2.96658,74.25622 -8.40432,50.41439 -42.63732,86.81168 -89.03138,91.89443 -45.25573,-4.82871 -80.16026,-41.49301 -89.78096,-91.89443 0,0 -2.96657,-74.25622 -2.96657,-74.25622 -2.186,-54.71823 38.6681,-102.53762 92.37277,-102.53762 z" />
    <path
       inkscape:connector-curvature="0"
       id="1 line"
       style="fill:#3b434f;fill-rule:evenodd;stroke:none"
       d="m 355.46639,234.49891 c 0,0 -3.15731,77.58824 -3.15731,77.58824 -8.94469,52.67654 -45.37874,90.70706 -94.75577,96.01787 -48.16555,-5.04537 -85.31432,-43.35488 -95.55359,-96.01787 0,0 -3.1573,-77.58824 -3.1573,-77.58824 -2.32654,-57.17352 41.15434,-107.13868 98.312,-107.13868 57.15768,0 100.63851,49.96516 98.31197,107.13868 z M 257.16104,133.38849 c -53.70467,0 -94.55877,47.81942 -92.37277,102.53762 0,0 2.96657,74.25623 2.96657,74.25623 9.6207,50.40141 44.52523,87.06573 89.78096,91.89442 46.39406,-5.08275 80.62706,-41.48003 89.03138,-91.89442 0,0 2.96658,-74.25623 2.96658,-74.25623 2.18599,-54.7182 -38.66807,-102.53762 -92.37272,-102.53762 z" />
    <path
       inkscape:connector-curvature="0"
       id="usta"
       style="fill:#3b434f;fill-rule:nonzero;stroke:none"
       d="m 302.95718,338.86671 c -7.70862,6.79576 -25.12011,13.26155 -45.37894,13.26155 -20.25885,0 -37.67034,-6.46579 -45.37898,-13.26155 0,0 -0.78869,-2.20336 0.36846,-3.37823 1.17858,-1.19659 3.02436,-0.93616 3.02436,-0.93616 7.70054,6.80037 21.71956,12.4089 41.98616,12.4089 20.26657,0 34.28561,-5.60853 41.98615,-12.4089 0,0 1.88362,-0.71043 2.79866,0.2186 1.76238,1.78935 0.59413,4.09579 0.59413,4.09579 z" />
    <path
       inkscape:connector-curvature="0"
       id="-"
       style="fill:#3b434f;fill-rule:nonzero;stroke:none"
       d="m 243.58285,362.46245 c 0,0 27.14255,0 27.14255,0 0,0 0,4.3059 0,4.3059 0,0 -27.14255,0 -27.14255,0 0,0 0,-4.3059 0,-4.3059 z" />
    <path
       inkscape:connector-curvature="0"
       id="Shape 11 copy"
       style="fill:#ffffff;fill-rule:nonzero;stroke:none"
       d="m 159.55145,243.98943 c -0.0117,6.7e-4 -1.04132,-0.83413 -2.98556,-1.45565 -0.97171,-0.31007 -2.17941,-0.56514 -3.55594,-0.62804 -0.34378,-0.0157 -0.69761,-0.0194 -1.05964,-0.009 -0.36204,0.0106 -0.73233,0.0349 -1.10871,0.0758 -0.75268,0.0816 -1.53007,0.22836 -2.31232,0.45682 -3.13221,0.91391 -6.32747,3.13591 -8.20403,7.72214 -0.942,2.29323 -1.56342,5.17779 -1.72771,8.78688 -0.0411,0.90229 -0.0537,1.84985 -0.0358,2.84479 0.018,0.99493 0.0666,2.03724 0.14797,3.12901 0.16244,2.18343 0.45578,4.56476 0.89282,7.15962 -0.009,-0.003 -0.40762,7.84144 2.35436,16.85473 2.59656,8.81225 8.83168,19.63732 20.34388,22.7307 -1.32401,-22.38333 -1.36514,-45.18624 -2.74947,-67.66785 0,0 0,0 0,0 z" />
    <path
       inkscape:connector-curvature="0"
       id="Shape 3"
       style="fill:#3b434f;fill-rule:nonzero;stroke:none"
       d="m 160.86415,244.89178 c 0,0 -20.05512,-6.30916 -19.34935,14.62407 0,0 2.98586,30.35385 4.28247,33.15134 0,0 7.87621,17.67306 20.87476,18.45628 12.70419,0.76549 0,0 0,0 0,0 0.15777,5.69644 0.15777,5.69644 0,0 -22.84652,-2.97409 -27.25917,-29.70526 0,0 -3.48282,-24.28399 -3.48282,-24.28399 0,0 -2.70426,-32.13747 23.52722,-23.96627 25.55478,7.96042 0,0 0,0 0,0 1.24912,6.02739 1.24912,6.02739" />
    <path
       inkscape:connector-curvature="0"
       id="Shape 4"
       style="fill:#3b434f;fill-rule:nonzero;stroke:none"
       d="m 154.24463,287.06358 c 0,0 -1.12237,0.86117 -2.08653,0.86117 -0.96417,0 -2.07286,-0.86117 -2.07286,-0.86117 0,0 -2.0697,-21.17574 -2.0697,-21.17574 0,0 2.85566,-10.42848 14.97328,-4.91733 0,0 0.28645,6.05489 0.28645,6.05489 0,0 -10.63137,-3.82808 -10.41154,0.93877 0.21161,4.58835 1.3809,19.09941 1.3809,19.09941 z" />
    <path
       inkscape:connector-curvature="0"
       id="Shape 11 copy_1"
       style="fill:#ffffff;fill-rule:nonzero;stroke:none"
       d="m 355.37369,244.03886 c 0.0117,6.7e-4 1.04588,-0.83355 2.99862,-1.45466 0.976,-0.30986 2.18898,-0.56475 3.57155,-0.6276 0.34525,-0.0157 0.70062,-0.0194 1.06427,-0.009 0.36361,0.0106 0.73551,0.0349 1.11357,0.0758 0.75596,0.0815 1.53676,0.22821 2.32244,0.45651 3.14592,0.9133 6.35517,3.13378 8.23994,7.71689 0.94613,2.29167 1.57029,5.17425 1.73528,8.78092 0.0412,0.90167 0.0539,1.84858 0.0359,2.84285 -0.0181,0.99426 -0.0669,2.03585 -0.14864,3.12687 -0.16313,2.18198 -0.45777,4.56169 -0.89673,7.15478 0.009,-0.003 0.40942,7.83613 -2.36468,16.84328 -2.60788,8.80629 -8.87034,19.624 -20.43297,22.71528 1.32982,-22.36815 1.37113,-45.15555 2.76153,-67.62193 0,0 0,0 0,0 z" />
    <path
       inkscape:connector-curvature="0"
       id="Shape 3_1"
       style="fill:#3b434f;fill-rule:nonzero;stroke:none"
       d="m 353.05687,244.94063 c 0,0 20.14299,-6.30489 19.43412,14.61411 0,0 -2.99893,30.33325 -4.30124,33.12883 0,0 -7.91071,17.66107 -20.96616,18.44379 -12.75986,0.76496 0,0 0,0 0,0 -0.15847,5.69255 -0.15847,5.69255 0,0 22.94657,-2.97206 27.37853,-29.68509 0,0 3.49809,-24.2675 3.49809,-24.2675 0,0 2.71612,-32.11567 -23.63027,-23.95002 -25.66668,7.95502 0,0 0,0 0,0 -1.2546,6.02333 -1.2546,6.02333" />
    <path
       inkscape:connector-curvature="0"
       id="Shape 4_1"
       style="fill:#3b434f;fill-rule:nonzero;stroke:none"
       d="m 359.70541,287.08379 c 0,0 1.12727,0.86059 2.09566,0.86059 0.9684,0 2.08194,-0.86059 2.08194,-0.86059 0,0 2.07875,-21.16137 2.07875,-21.16137 0,0 -2.86815,-10.42139 -15.03887,-4.914 0,0 -0.28768,6.05081 -0.28768,6.05081 0,0 10.67794,-3.82551 10.45713,0.93812 -0.21252,4.58522 -1.38693,19.08644 -1.38693,19.08644 z" />
    <path
       inkscape:connector-curvature="0"
       id="new_vector_shape_done"
       style="fill:#3b434f;fill-rule:evenodd;stroke:none"
       d="m 265.00001,285.38683 c 0.49472,0 0.98963,0 1.48435,0 3.0689,4.23154 4.31747,10.73424 5.93742,16.36241 0.50204,1.74419 0.015,4.79501 -0.42409,6.02826 -1.60805,4.51668 -6.65738,4.43562 -10.81459,6.45883 -1.11649,0.54341 -1.94697,1.48135 -3.39282,1.72241 -0.9426,-0.84302 -2.08071,-1.00859 -2.54463,-2.36827 -1.14541,-1.60132 0.3308,-2.6013 1.48436,-3.22943 2.09359,-1.13997 8.55642,-2.26351 9.33025,-4.30591 0.95744,-1.1058 0.3208,-4.43052 0,-5.59766 -0.82164,-2.98939 -1.21601,-5.4851 -2.33255,-8.1812 -0.74167,-1.79082 -2.04382,-3.67902 -1.27231,-5.81298 0.63932,-0.27872 2.02108,-0.59564 2.54461,-1.07646 z" />
    <path
       inkscape:connector-curvature="0"
       id="Rounded Rectangle 8"
       style="fill:#3b434f;fill-rule:nonzero;stroke:none"
       d="m 206.2618,252.23139 c 0,0 5.93746,0 5.93746,0 3.27916,0 5.93742,2.69895 5.93742,6.02827 0,3.32931 -2.65826,6.02825 -5.93742,6.02825 0,0 -5.93746,0 -5.93746,0 -3.27916,0 -5.93742,-2.69894 -5.93742,-6.02825 0,-3.32932 2.65826,-6.02827 5.93742,-6.02827 z" />
    <path
       inkscape:connector-curvature="0"
       id="Rounded Rectangle 8 copy"
       style="fill:#3b434f;fill-rule:nonzero;stroke:none"
       d="m 302.95718,252.23139 c 0,0 5.93744,0 5.93744,0 3.27917,0 5.93743,2.69895 5.93743,6.02827 0,3.32931 -2.65826,6.02825 -5.93743,6.02825 0,0 -5.93744,0 -5.93744,0 -3.27915,0 -5.93743,-2.69894 -5.93743,-6.02825 0,-3.32932 2.65828,-6.02827 5.93743,-6.02827 z" />
    <path
       inkscape:connector-curvature="0"
       id="Ellipse 3"
       style="fill:#edf1f1;fill-rule:nonzero;stroke:none"
       d="m 308.47053,280.65035 c 5.85562,0 10.60256,4.81955 10.60256,10.76474 0,5.94519 -4.74694,10.76474 -10.60256,10.76474 -5.85564,0 -10.60256,-4.81955 -10.60256,-10.76474 0,-5.94519 4.74692,-10.76474 10.60256,-10.76474 z" />
    <path
       inkscape:connector-curvature="0"
       id="Ellipse 3 copy"
       style="fill:#edf1f1;fill-rule:nonzero;stroke:none"
       d="m 205.83773,280.65035 c 5.85561,0 10.60256,4.81955 10.60256,10.76474 0,5.94519 -4.74695,10.76474 -10.60256,10.76474 -5.85565,0 -10.60255,-4.81955 -10.60255,-10.76474 0,-5.94519 4.7469,-10.76474 10.60255,-10.76474 z" />
    <path
       inkscape:connector-curvature="0"
       id="glasses"
       style="fill:#3b444f;fill-rule:evenodd;stroke:none"
       d="m 349.53548,239.51513 c -0.57372,4.97524 -1.07774,11.06344 -2.13732,16.50667 -3.16844,16.27682 -16.94385,31.35718 -40.46542,33.07545 -23.52155,1.71825 -43.54056,-10.30425 -44.7137,-26.85305 -0.1989,-2.80586 -0.73099,-5.95459 -1.13933,-9.01583 -3.32871,-1.87367 -6.75957,-1.87795 -10.29253,-0.0127 -0.41261,3.13054 -0.96475,6.36207 -1.16838,9.23505 -1.17681,16.60365 -21.25895,28.66602 -44.8547,26.94204 -23.59572,-1.72394 -37.41459,-16.85427 -40.59303,-33.18505 -1.06291,-5.46127 -1.56853,-11.56965 -2.14406,-16.5614 0,0 -3.46734,-0.25334 -3.46734,-0.25334 0,0 0.48704,-6.87166 0.48704,-6.87166 0,0 0.84602,0.0618 0.84602,0.0618 0,0 21.45879,1.56783 21.45879,1.56783 0,0 18.11357,1.32344 18.11357,1.32344 0,0 18.14724,1.32586 18.14724,1.32586 0,0 28.26578,2.06518 28.26578,2.06518 1.94939,0.25032 3.24563,1.09916 4.08039,2.36631 4.05937,1.80413 8.00175,1.81134 11.82713,0.0213 0.82721,-1.34869 2.14088,-2.25668 4.16232,-2.51623 0,0 28.17693,-2.05831 28.17693,-2.05831 0,0 18.09022,-1.32151 18.09022,-1.32151 0,0 18.05663,-1.31904 18.05663,-1.31904 0,0 21.39132,-1.56268 21.39132,-1.56268 0,0 0.84335,-0.0615 0.84335,-0.0615 0,0 0.48554,6.84897 0.48554,6.84897 0,0 -3.45646,0.25252 -3.45646,0.25252 z m -111.24743,7.42532 c 0,0 -55.39663,-4.0474 -55.39663,-4.0474 -7.24545,-0.6342 -9.81363,7.63231 -10.26018,13.93274 -0.94145,13.28289 13.63572,25.17165 32.55903,26.55424 18.9233,1.38255 35.0269,-8.26455 35.96836,-21.54748 0.44655,-6.30039 2.47345,-10.19143 -2.87058,-14.8921 z m 100.67654,9.69743 c -0.44514,-6.2796 -3.00527,-14.51882 -10.22793,-13.88673 0,0 -55.22249,4.03405 -55.22249,4.03405 -5.32721,4.68518 -3.30669,8.56332 -2.86156,14.84292 0.93851,13.23903 16.99148,22.85429 35.85529,21.47626 18.86383,-1.378 33.3952,-13.22749 32.45669,-26.4665 z" />
    <path
       inkscape:connector-curvature="0"
       id="Shape 26"
       style="fill:#3b434f;fill-rule:nonzero;stroke:none"
       d="m 166.39617,177.3087 c 0,0 30.95949,-40.04487 30.95949,-40.04487 0,0 27.99076,-13.34828 27.99076,-13.34828 0,0 37.74512,-6.0283 37.74512,-6.0283 0,0 43.25849,2.58354 43.25849,2.58354 0,0 58.10201,61.14381 58.10201,61.14381 0,0 -15.69178,57.69908 -15.69178,57.69908 0,0 -3.5966,-25.44686 -22.90154,-45.64254 -18.0075,-18.83837 -29.68718,-23.46715 -29.68718,-23.46715 0,0 -6.81008,27.90098 -52.16459,26.91187 -81.35147,-1.7742 -77.73819,56.8824 -80.57949,62.00497 -0.31227,0.56299 -0.4241,-24.54364 -0.4241,-24.54364 0,0 3.39281,-57.26849 3.39281,-57.26849 z" />
  </g>
  <g
     inkscape:groupmode="layer"
     id="layer1"
     inkscape:label="Layer"
     transform="translate(2.4250521,-39.543603)" />
</svg>
